<svg width="74" height="74" viewBox="0 0 74 74" fill="none" xmlns="http://www.w3.org/2000/svg">
<circle cx="37" cy="37" r="37" fill="#1F2937"/>
<path d="M16.136 38.32C14.7707 38.32 13.64 38.0107 12.744 37.392C11.8693 36.7733 11.2613 35.9093 10.92 34.8C10.5787 33.6907 10.504 32.4107 10.696 30.96C10.7387 30.64 10.8133 30.2133 10.92 29.68C11.048 29.1467 11.1547 28.72 11.24 28.4C11.6667 26.9493 12.2853 25.6693 13.096 24.56C13.9067 23.4507 14.8773 22.5867 16.008 21.968C17.16 21.3493 18.4293 21.04 19.816 21.04C21.3093 21.04 22.504 21.3707 23.4 22.032C24.296 22.6933 24.8933 23.6427 25.192 24.88C25.4907 26.1173 25.4693 27.5893 25.128 29.296L25.032 29.776C24.9893 29.9893 24.8827 30.16 24.712 30.288C24.5413 30.416 24.3493 30.48 24.136 30.48H12.744C12.744 30.48 12.7333 30.5227 12.712 30.608C12.712 30.6933 12.7013 30.7573 12.68 30.8C12.5307 31.76 12.5627 32.6773 12.776 33.552C12.9893 34.4053 13.4053 35.1093 14.024 35.664C14.664 36.1973 15.496 36.464 16.52 36.464C17.4373 36.464 18.2267 36.3253 18.888 36.048C19.5707 35.7707 20.1253 35.472 20.552 35.152C20.9787 34.8107 21.2667 34.5547 21.416 34.384C21.672 34.1067 21.8533 33.9467 21.96 33.904C22.088 33.84 22.2693 33.808 22.504 33.808H23.016C23.208 33.808 23.3573 33.872 23.464 34C23.5707 34.1067 23.6027 34.256 23.56 34.448C23.4747 34.7467 23.2293 35.12 22.824 35.568C22.44 35.9947 21.9067 36.4213 21.224 36.848C20.5627 37.2747 19.7947 37.6267 18.92 37.904C18.0667 38.1813 17.1387 38.32 16.136 38.32ZM13.128 28.688H23.304L23.336 28.56C23.6133 27.4933 23.6347 26.5333 23.4 25.68C23.1653 24.8267 22.7067 24.1547 22.024 23.664C21.3627 23.152 20.4987 22.896 19.432 22.896C18.3653 22.896 17.4053 23.152 16.552 23.664C15.72 24.1547 15.016 24.8267 14.44 25.68C13.864 26.5333 13.4373 27.4933 13.16 28.56L13.128 28.688ZM26.3742 38C26.1609 38 25.9902 37.9253 25.8622 37.776C25.7342 37.6053 25.6916 37.4133 25.7342 37.2L26.4062 34.064C26.4703 33.7653 26.5769 33.52 26.7263 33.328C26.8969 33.136 27.0249 32.9973 27.1103 32.912L39.8143 20.368H30.4383C30.2036 20.368 30.0223 20.2933 29.8943 20.144C29.7876 19.9947 29.7556 19.8027 29.7983 19.568L30.4703 16.4C30.5129 16.1653 30.6196 15.9733 30.7903 15.824C30.9823 15.6747 31.1956 15.6 31.4303 15.6H47.5583C47.7929 15.6 47.9743 15.6747 48.1023 15.824C48.2303 15.9733 48.2729 16.1653 48.2303 16.4L47.5583 19.504C47.5156 19.7387 47.4303 19.9413 47.3023 20.112C47.1743 20.2827 47.0356 20.4427 46.8863 20.592L34.4703 33.168H44.1983C44.4329 33.168 44.6143 33.2533 44.7423 33.424C44.8703 33.5733 44.9023 33.7653 44.8383 34L44.1663 37.2C44.1236 37.4347 44.0063 37.6267 43.8143 37.776C43.6436 37.9253 43.4409 38 43.2063 38H26.3742ZM53.7803 38.32C52.5429 38.32 51.5403 38.096 50.7723 37.648C50.0043 37.2 49.4283 36.6027 49.0443 35.856C48.6603 35.1093 48.4256 34.2773 48.3403 33.36C48.2763 32.4427 48.3189 31.5147 48.4683 30.576C48.5109 30.256 48.5643 29.9573 48.6283 29.68C48.6923 29.4027 48.7669 29.104 48.8523 28.784C49.0869 27.8453 49.4069 26.928 49.8123 26.032C50.2176 25.1147 50.7403 24.2827 51.3802 23.536C52.0203 22.768 52.8096 22.16 53.7483 21.712C54.6869 21.264 55.7963 21.04 57.0763 21.04C58.4843 21.04 59.5403 21.2853 60.2443 21.776C60.9483 22.2667 61.4816 22.864 61.8443 23.568L62.1643 22.064C62.2069 21.8507 62.3029 21.68 62.4523 21.552C62.6016 21.424 62.7829 21.36 62.9963 21.36H63.5403C63.7536 21.36 63.9136 21.424 64.0203 21.552C64.1269 21.68 64.1589 21.8507 64.1163 22.064L60.8843 37.296C60.8416 37.5093 60.7456 37.68 60.5963 37.808C60.4469 37.936 60.2656 38 60.0523 38H59.5083C59.2949 38 59.1349 37.936 59.0283 37.808C58.9216 37.68 58.8896 37.5093 58.9323 37.296L59.2523 35.792C58.5909 36.5173 57.8656 37.1253 57.0763 37.616C56.2869 38.0853 55.1883 38.32 53.7803 38.32ZM53.7803 36.464C54.9963 36.464 56.0523 36.176 56.9483 35.6C57.8443 35.024 58.5696 34.3093 59.1243 33.456C59.7003 32.5813 60.0949 31.7067 60.3083 30.832C60.3936 30.512 60.4896 30.096 60.5963 29.584C60.7029 29.072 60.7883 28.656 60.8523 28.336C61.0229 27.4827 61.0336 26.64 60.8843 25.808C60.7349 24.976 60.3616 24.2827 59.7643 23.728C59.1669 23.1733 58.2709 22.896 57.0763 22.896C55.9243 22.896 54.9323 23.1733 54.1003 23.728C53.2896 24.2827 52.6176 25.008 52.0843 25.904C51.5509 26.8 51.1349 27.76 50.8363 28.784C50.7509 29.104 50.6763 29.4027 50.6123 29.68C50.5483 29.9573 50.4949 30.256 50.4523 30.576C50.3029 31.6 50.2603 32.56 50.3243 33.456C50.4096 34.352 50.7189 35.0773 51.2523 35.632C51.7856 36.1867 52.6283 36.464 53.7803 36.464Z" fill="white"/>
<path d="M23.677 53.9211H23.4639L23.5358 54.1217L24.5826 57.0434L24.5827 57.0436C24.6334 57.1845 24.5694 57.3274 24.4787 57.3747C24.4784 57.3748 24.4782 57.3749 24.478 57.3751L23.5579 57.8345L23.5578 57.8346C23.4859 57.8705 23.3786 57.8431 23.3283 57.7086C23.3282 57.7083 23.3281 57.7081 23.328 57.7078L22.3339 54.935L22.2462 54.6906L22.0783 54.8886L20.4533 56.8036C20.4533 56.8036 20.4533 56.8036 20.4533 56.8036C20.3911 56.877 20.3254 56.8782 20.2713 56.8504C20.2094 56.8186 20.15 56.7391 20.15 56.6245V47.3931C20.15 47.2722 20.2125 47.1954 20.2755 47.1654C20.3348 47.1372 20.3992 47.145 20.4496 47.2094L20.4495 47.2095L20.4533 47.214L25.786 53.4991L25.786 53.4991L25.7887 53.5021C25.8524 53.5732 25.8662 53.6797 25.8317 53.776C25.7965 53.8742 25.7287 53.9211 25.666 53.9211H23.677Z" stroke="white" stroke-width="0.3"/>
<path d="M37.677 53.9211H37.4639L37.5358 54.1217L38.5826 57.0434L38.5827 57.0436C38.6334 57.1845 38.5694 57.3274 38.4787 57.3747C38.4784 57.3748 38.4782 57.3749 38.478 57.3751L37.5579 57.8345L37.5578 57.8346C37.4859 57.8705 37.3786 57.8431 37.3283 57.7086C37.3282 57.7083 37.3281 57.7081 37.328 57.7078L36.3339 54.935L36.2462 54.6906L36.0783 54.8886L34.4533 56.8036C34.4533 56.8036 34.4533 56.8036 34.4533 56.8036C34.3911 56.877 34.3254 56.8782 34.2713 56.8504C34.2094 56.8186 34.15 56.7391 34.15 56.6245V47.3931C34.15 47.2722 34.2125 47.1954 34.2755 47.1654C34.3348 47.1372 34.3992 47.145 34.4496 47.2094L34.4495 47.2095L34.4533 47.214L39.786 53.4991L39.786 53.4991L39.7887 53.5021C39.8524 53.5732 39.8662 53.6797 39.8317 53.776C39.7965 53.8742 39.7287 53.9211 39.666 53.9211H37.677Z" stroke="white" stroke-width="0.3"/>
<path d="M52.9929 56.775V57.4844C52.9929 57.681 52.8256 57.85 52.6071 57.85H46.5357C46.3172 57.85 46.15 57.681 46.15 57.4844V49.5781C46.15 49.3815 46.3172 49.2125 46.5357 49.2125H47.9929V55.4219C47.9929 56.1735 48.6262 56.775 49.3929 56.775H52.9929ZM52.9929 47.15V49.2344C52.9929 49.6062 53.3065 49.9 53.6786 49.9H55.85V55.4219C55.85 55.6185 55.6828 55.7875 55.4643 55.7875H49.3929C49.1744 55.7875 49.0071 55.6185 49.0071 55.4219V47.5156C49.0071 47.319 49.1744 47.15 49.3929 47.15H52.9929ZM54.2672 47.2591L55.7391 48.6758C55.8058 48.74 55.8444 48.8245 55.8494 48.9125H54.0071V47.1503C54.1058 47.1538 54.1986 47.1931 54.2672 47.2591Z" stroke="white" stroke-width="0.3"/>
<path d="M12.5 42.5H61" stroke="white" stroke-width="0.3"/>
<circle cx="61.5" cy="42.5" r="1.5" fill="#D9D9D9"/>
<circle cx="12.5" cy="42.5" r="1.5" fill="#D9D9D9"/>
</svg>
